# xmcd CD database file
#
# Track frame offsets:
#	150
#	15434
#	30723
#	47810
#	64897
#	82912
#	100787
#	116546
#	132284
#	144510
#	156744
#	170808
#	184886
#	203655
#	222436
#	242364
#	262286
#	277141
#	291974
#	311498
#	331007
#
# Disc length: 4432 seconds
#
# Revision: 0
# Processed by: cddbd v1.5.2PL0 Copyright (c) Steve Scherf et al.
# Submitted via: CDex 1.51
#
DISCID=3e114e15
DTITLE=Mark Taylor - Hal Leonard - Vol 63 Classical Jazz
DYEAR=1900
DGENRE=Jazz
TTITLE0=Eine Kleine Nachtmusik Split
TTITLE1=Eine Kleine Nachtmusik Stereo
TTITLE2=Emperor Waltz Split
TTITLE3=Emperor Waltz Stereo
TTITLE4=Habanera Split
TTITLE5=Habanera Stereo
TTITLE6=Jesu, Joy of Man's Desiring Split
TTITLE7=Jesu, Joy of Man's Desiring Stereo
TTITLE8=Minuet in G Split
TTITLE9=Minuet in G Stereo
TTITLE10=New World Symphony Theme Split
TTITLE11=New World Symphony Theme Stereo
TTITLE12=Nocturne in F Minor Split
TTITLE13=Nocturne in F Minor Stereo
TTITLE14=Ode to Joy Split
TTITLE15=Ode to Joy Stereo
TTITLE16=Pavane Split
TTITLE17=Pavane Stereo
TTITLE18=Pavane For a Dead Princess Split
TTITLE19=Pavane For a Dead Princess Stereo
TTITLE20=Bb TUning Notes
EXTD=
EXTT0=
EXTT1=
EXTT2=
EXTT3=
EXTT4=
EXTT5=
EXTT6=
EXTT7=
EXTT8=
EXTT9=
EXTT10=
EXTT11=
EXTT12=
EXTT13=
EXTT14=
EXTT15=
EXTT16=
EXTT17=
EXTT18=
EXTT19=
EXTT20=
PLAYORDER=
